<?xml version="1.0" encoding="UTF-8" standalone="no"?>
<!-- Created with Inkscape (http://www.inkscape.org/) -->

<svg
   width="512"
   height="512"
   viewBox="0 0 512 512"
   version="1.1"
   id="svg5"
   inkscape:version="1.2.2 (b0a8486541, 2022-12-01)"
   sodipodi:docname="logo.svg"
   inkscape:export-filename="logo.png"
   inkscape:export-xdpi="96"
   inkscape:export-ydpi="96"
   xmlns:inkscape="http://www.inkscape.org/namespaces/inkscape"
   xmlns:sodipodi="http://sodipodi.sourceforge.net/DTD/sodipodi-0.dtd"
   xmlns="http://www.w3.org/2000/svg"
   xmlns:svg="http://www.w3.org/2000/svg">
  <sodipodi:namedview
     id="namedview7"
     pagecolor="#505050"
     bordercolor="#ffffff"
     borderopacity="1"
     inkscape:showpageshadow="0"
     inkscape:pageopacity="0"
     inkscape:pagecheckerboard="1"
     inkscape:deskcolor="#505050"
     inkscape:document-units="px"
     showgrid="false"
     inkscape:zoom="1.5527344"
     inkscape:cx="237.00126"
     inkscape:cy="221.86667"
     inkscape:window-width="1920"
     inkscape:window-height="1011"
     inkscape:window-x="1030"
     inkscape:window-y="1112"
     inkscape:window-maximized="1"
     inkscape:current-layer="layer1" />
  <defs
     id="defs2">
    <inkscape:perspective
       sodipodi:type="inkscape:persp3d"
       inkscape:vp_x="0 : 256 : 1"
       inkscape:vp_y="0 : 1000 : 0"
       inkscape:vp_z="512 : 256 : 1"
       inkscape:persp3d-origin="256 : 170.66667 : 1"
       id="perspective898" />
  </defs>
  <g
     inkscape:label="Layer 1"
     inkscape:groupmode="layer"
     id="layer1">
    <rect
       style="font-variation-settings:normal;opacity:1;vector-effect:none;fill:#000000;fill-opacity:1;stroke:none;stroke-width:89.3218;stroke-linecap:round;stroke-linejoin:round;stroke-miterlimit:4;stroke-dasharray:none;stroke-dashoffset:0;stroke-opacity:1;-inkscape-stroke:none;paint-order:normal;stop-color:#000000;stop-opacity:1"
       id="rect3670"
       width="468.2821"
       height="468.2821"
       x="21.858959"
       y="21.858959"
       ry="104.95306" />
    <g
       id="g3684"
       transform="matrix(0.86163699,0,0,0.86163699,35.420924,19.651205)">
      <ellipse
         style="font-variation-settings:normal;opacity:1;vector-effect:none;fill:#ffffff;fill-opacity:1;stroke:none;stroke-width:60.6123;stroke-linecap:round;stroke-linejoin:round;stroke-miterlimit:4;stroke-dasharray:none;stroke-dashoffset:0;stroke-opacity:1;-inkscape-stroke:none;stop-color:#000000;stop-opacity:1"
         id="path914"
         cx="256"
         cy="171.72134"
         rx="187.21828"
         ry="44.048115" />
      <path
         id="path914-5"
         style="fill:#ffffff;stroke:none;stroke-width:57.2599;stroke-linecap:round;stroke-linejoin:round;stroke-dasharray:none;stroke-opacity:1"
         d="m 231.67995,272.58432 c -35.46242,2e-5 -67.56749,-2.6532 -90.80671,-6.94286 -11.6196,-2.14483 -21.02274,-4.69877 -27.52085,-7.53473 -26.829331,-12.05396 -54.184274,-4.4346 -35.625193,7.91908 8.454604,5.26995 20.688825,10.01586 35.806803,14.00153 30.23594,7.97133 72.0069,12.90172 118.14595,12.90168 36.60469,-1.78899 54.76222,-20.65443 0,-20.3447 z"
         sodipodi:nodetypes="csccscc" />
      <path
         id="path914-5-6"
         style="fill:#ffffff;stroke:none;stroke-width:57.2599;stroke-linecap:round;stroke-linejoin:round;stroke-dasharray:none;stroke-opacity:1"
         d="m 231.67995,345.44734 c -35.46242,2e-5 -67.56749,-2.65321 -90.80671,-6.94286 -11.6196,-2.14483 -21.02274,-4.69878 -27.52085,-7.53473 -26.829326,-12.05396 -54.184277,-4.43461 -35.625195,7.91907 8.454608,5.26996 20.688825,10.01587 35.806795,14.00153 30.23595,7.97134 72.00691,12.90172 118.14596,12.90169 36.60469,-1.78899 54.76222,-20.65443 0,-20.3447 z"
         sodipodi:nodetypes="csccscc" />
    </g>
  </g>
</svg>
