<?xml version="1.0" encoding="UTF-8"?>
<svg version="1.1" viewBox="0 0 512 512" xmlns="http://www.w3.org/2000/svg">
  <rect x="21.859" y="21.859" width="468.28" height="468.28" ry="104.95" stop-color="#000000"
    style="-inkscape-stroke:none;font-variation-settings:normal;paint-order:normal" />
  <g transform="matrix(.86164 0 0 .86164 35.421 19.651)" fill="#fff">
    <ellipse cx="256" cy="171.72" rx="187.22" ry="44.048" stop-color="#000000"
      style="-inkscape-stroke:none;font-variation-settings:normal" />
    <path
      d="m231.68 272.58c-35.462 2e-5 -67.567-2.6532-90.807-6.9429-11.62-2.1448-21.023-4.6988-27.521-7.5347-26.829-12.054-54.184-4.4346-35.625 7.9191 8.4546 5.27 20.689 10.016 35.807 14.002 30.236 7.9713 72.007 12.902 118.15 12.902 36.605-1.789 54.762-20.654 0-20.345z" />
    <path
      d="m231.68 345.45c-35.462 2e-5 -67.567-2.6532-90.807-6.9429-11.62-2.1448-21.023-4.6988-27.521-7.5347-26.829-12.054-54.184-4.4346-35.625 7.9191 8.4546 5.27 20.689 10.016 35.807 14.002 30.236 7.9713 72.007 12.902 118.15 12.902 36.605-1.789 54.762-20.654 0-20.345z" />
  </g>
</svg>